<svg width="245" height="70" viewBox="0 0 245 70" fill="none" xmlns="http://www.w3.org/2000/svg">
<path d="M76.8387 24.9689H88.8459C90.0942 24.9689 90.8273 24.5138 90.8273 23.2674C90.8273 21.9813 90.0942 21.5263 88.8459 21.5263H76.8387V24.9689ZM76.8387 33.0017H89.0044C90.4707 33.0017 91.4416 32.6653 91.4416 31.3793C91.4416 29.8756 90.4707 29.5393 89.0044 29.5393H76.8387V33.0017ZM70.0424 16.2239H89.5592C94.9685 16.2239 97.6037 17.688 97.6037 22.0209C97.6037 25.7999 96.2366 26.5319 94.3344 27.0859V27.1848C97.3065 27.5608 98.3963 29.1436 98.3963 32.4675C98.3963 37.3149 95.5232 38.3239 91.6397 38.3239H70.0424V16.2239Z" fill="#0099D8"/>
<path d="M103.568 16.2239H110.364V32.6456H125.601V38.3041H103.568V16.2239Z" fill="#0099D8"/>
<path d="M135.726 16.2239V28.9655C135.726 31.775 136.736 32.8632 139.51 32.8632H146.227C149.001 32.8632 150.012 31.775 150.012 28.9655V16.2239H156.788V30.4494C156.788 35.9299 153.955 38.5613 147.713 38.5613H138.004C131.763 38.5613 128.93 35.9299 128.93 30.4494V16.2239H135.726Z" fill="#0099D8"/>
<path d="M161.86 16.2239H186.053V21.3482H168.637V24.8898H185.142V29.4601H168.637V33.0017H186.45V38.3041H161.86V16.2239Z" fill="#0099D8"/>
<path d="M70.0424 55.3392C70.0424 48.8694 73.6684 47.346 79.7909 47.346H87.7562C97.4056 47.346 98.6737 49.4234 98.6142 55.6755H91.8378V55.0622C91.8378 53.4794 90.6688 53.0243 88.6676 53.0243H81.277C77.7105 53.0243 77.0368 54.706 77.0368 57.4562V59.8304C77.0368 63.0356 77.7105 64.2623 80.9203 64.2623H88.1525C91.2038 64.2623 92.1152 63.9655 92.1152 61.2154H98.8916V63.2928C98.8916 67.0124 97.5443 69.9406 90.7283 69.9406H79.7909C73.6882 69.9406 70.0424 68.4172 70.0424 61.9474V55.3392Z" fill="#0099D8"/>
<path d="M110.225 58.4454H121.44C123.283 58.4454 123.937 57.7134 123.937 56.1306V55.3985C123.937 53.4398 122.966 53.0837 120.826 53.0837H110.225V58.4454ZM103.449 47.6032H123.917C129.148 47.6032 130.554 50.195 130.554 54.1521V55.5568C130.554 58.5246 129.881 60.2459 126.77 60.978V61.0373C128.791 61.3934 130.455 62.2838 130.455 65.9242V69.6834H123.679V67.0322C123.679 64.7174 123.005 63.9457 120.905 63.9457H110.245V69.6834H103.469V47.6032H103.449Z" fill="#0099D8"/>
<path d="M142.086 59.8304C142.086 63.0356 142.76 64.2623 145.97 64.2623H154.648C157.858 64.2623 158.532 63.0356 158.532 59.8304V57.4562C158.532 54.706 157.858 53.0243 154.292 53.0243H146.346C142.78 53.0243 142.106 54.706 142.106 57.4562V59.8304H142.086ZM135.112 55.3392C135.112 48.8694 138.757 47.346 144.86 47.346H155.738C161.841 47.346 165.486 48.8694 165.486 55.3392V61.9276C165.486 68.3974 161.86 69.9209 155.738 69.9209H144.86C138.757 69.9209 135.112 68.3974 135.112 61.9276V55.3392Z" fill="#0099D8"/>
<path d="M176.424 62.4421C176.463 64.7965 177.395 64.9746 179.356 64.9746H187.658C189.085 64.9746 190.551 64.8163 190.551 63.1147C190.551 61.1956 189.759 61.0769 181.021 61.0769C170.816 61.0769 169.647 59.8502 169.647 54.4291C169.647 50.4324 170.024 47.346 178.564 47.346H188.035C195.861 47.346 196.594 49.9972 196.594 53.8751V54.5676H189.818C189.818 52.9452 189.64 52.2725 186.509 52.2725H179C177.474 52.2725 176.424 52.7869 176.424 53.974C176.424 55.8932 177.256 55.9525 184.528 55.9327C195.069 55.8932 197.506 56.5461 197.506 62.9763C197.506 68.9316 195.485 69.9011 186.469 69.9011H178.247C172.085 69.9011 169.608 68.7337 169.608 63.9457V62.4421H176.424Z" fill="#0099D8"/>
<path d="M208.582 62.4421C208.602 64.7965 209.553 64.9746 211.514 64.9746H219.816C221.243 64.9746 222.709 64.8163 222.709 63.1147C222.709 61.1956 221.917 61.0769 213.179 61.0769C202.975 61.0769 201.805 59.8502 201.805 54.4291C201.805 50.4324 202.182 47.346 210.722 47.346H220.193C228.019 47.346 228.753 49.9972 228.753 53.8751V54.5676H221.976C221.976 52.9452 221.798 52.2725 218.667 52.2725H211.158C209.632 52.2725 208.582 52.7869 208.582 53.974C208.582 55.8932 209.414 55.9525 216.686 55.9327C227.227 55.8932 229.664 56.5461 229.664 62.9763C229.664 68.9316 227.643 69.9011 218.628 69.9011H210.405C204.243 69.9011 201.766 68.7337 201.766 63.9457V62.4421H208.582Z" fill="#0099D8"/>
<path d="M237.926 52.2131H239.65C240.958 52.2131 241.275 51.6789 241.275 51.026C241.275 50.1752 240.364 50.0961 239.69 50.0961H237.946V52.2131H237.926ZM242.087 55.8338H241.057L239.195 52.9847H237.926V55.8338H237.015V49.3245H239.848C241.017 49.3245 242.167 49.641 242.167 51.0458C242.167 52.3318 241.295 52.866 240.126 52.8858L242.087 55.8338ZM234.261 52.5495C234.261 55.2798 236.44 57.476 239.175 57.476C241.889 57.476 244.049 55.2798 244.049 52.5495C244.049 49.8785 241.869 47.6823 239.175 47.6823C236.46 47.6823 234.261 49.8785 234.261 52.5495ZM245 52.5692C245 55.814 242.404 58.3861 239.175 58.3861C235.925 58.3861 233.31 55.814 233.31 52.5692C233.31 49.364 235.925 46.7524 239.175 46.7524C242.404 46.7722 245 49.364 245 52.5692Z" fill="#0099D8"/>
<path d="M81.9705 0.929904C82.3668 1.36518 82.5847 1.97852 82.664 2.92821C82.7036 3.36348 82.7234 3.8779 82.7234 4.92651C82.7234 7.30073 82.4856 8.21085 81.7723 8.86376C81.2374 9.33861 80.5241 9.55625 79.3352 9.63539C78.8795 9.65517 77.1557 9.69474 75.8281 9.69474C72.9155 9.69474 72.1427 9.6156 71.3304 9.16054C70.6963 8.82419 70.3 8.17128 70.1613 7.22159C70.0821 6.58847 70.0424 6.07405 70.0424 4.53081C70.0424 2.31487 70.2604 1.42453 70.9341 0.830978C71.4492 0.375919 72.1229 0.158282 73.3514 0.0593556C73.8269 0.0197852 75.2535 0 76.9972 0C80.3457 0 81.2572 0.178067 81.9705 0.929904ZM72.2616 4.84737C72.2616 6.70718 72.4003 7.30073 72.9353 7.55794C73.4703 7.83493 73.926 7.89429 76.6405 7.89429C79.0975 7.89429 79.7117 7.79536 80.0882 7.36009C80.425 7.00396 80.5241 6.39062 80.5241 4.78802C80.5241 1.82024 80.5042 1.78067 76.3829 1.78067C72.3211 1.80045 72.2616 1.84002 72.2616 4.84737Z" fill="#0099D8"/>
<path d="M85.0218 0.0989259H88.4298L95.5629 7.99322L95.5232 0.0989259H97.6235V9.59582H94.1957L87.1023 1.7411L87.1419 9.59582H85.0218V0.0989259Z" fill="#0099D8"/>
<path d="M103.845 1.87959H99.3672V0.0989259H110.503V1.87959H106.044V9.59582H103.845V1.87959Z" fill="#0099D8"/>
<path d="M112.9 7.71622L111.85 9.59582H109.373L114.822 0.0989259H117.794L123.144 9.59582H120.746L119.677 7.71622H112.9ZM116.288 1.64217L113.732 6.17298H118.864L116.288 1.64217Z" fill="#0099D8"/>
<path d="M132.417 0.0989259C134.081 0.0989259 134.834 0.296778 135.349 0.850763C135.765 1.30582 135.964 2.03787 135.964 3.12606C135.964 4.05596 135.785 4.6693 135.429 5.08479C135.131 5.44093 134.656 5.59921 133.507 5.7377C134.418 5.79706 134.636 5.83663 134.913 5.95534C135.528 6.25212 135.805 6.78632 135.805 7.69644V9.57603H133.586V8.17128C133.586 6.90503 133.269 6.62804 131.822 6.62804H126.532V9.59582H124.353V0.0989259H132.417ZM131.763 4.88694C133.368 4.88694 133.764 4.60995 133.764 3.46241C133.764 2.15659 133.427 1.87959 131.803 1.87959H126.552V4.88694H131.763Z" fill="#0099D8"/>
<path d="M138.262 0.0989259H140.461V9.59582H138.262V0.0989259Z" fill="#0099D8"/>
<path d="M154.708 0.929904C155.104 1.36518 155.322 1.97852 155.401 2.92821C155.441 3.36348 155.461 3.8779 155.461 4.92651C155.461 7.30073 155.223 8.21085 154.51 8.86376C153.975 9.31882 153.261 9.55625 152.072 9.6156C151.617 9.63539 149.893 9.67496 148.565 9.67496C145.653 9.67496 144.88 9.59582 144.068 9.14076C143.433 8.80441 143.037 8.1515 142.898 7.20181C142.819 6.56868 142.78 6.05427 142.78 4.51102C142.78 2.29508 142.998 1.40475 143.671 0.811193C144.186 0.356133 144.86 0.138496 146.089 0.0395704C146.584 0.0197852 148.011 0 149.734 0C153.103 0 153.994 0.178067 154.708 0.929904ZM145.019 4.84737C145.019 6.70718 145.157 7.30073 145.692 7.55794C146.227 7.83493 146.683 7.89429 149.397 7.89429C151.854 7.89429 152.469 7.79536 152.845 7.36009C153.182 7.00396 153.281 6.39062 153.281 4.78802C153.281 1.82024 153.261 1.78067 149.14 1.78067C145.078 1.80045 145.019 1.84002 145.019 4.84737Z" fill="#0099D8"/>
<path d="M15.4747 16.2436H38.558V31.4782H53.8148V54.5478H38.558V70H15.4747V54.5478H0V31.4584L15.4747 31.4782V16.2436Z" fill="#0099D8"/>
</svg>
